<svg width="30" height="30" viewBox="0 0 30 30" fill="none" xmlns="http://www.w3.org/2000/svg">
<rect width="30" height="30" fill="#4A5A36"/>
<path d="M3.75 3.75H26.25C26.5815 3.75 26.8995 3.8817 27.1339 4.11612C27.3683 4.35054 27.5 4.66848 27.5 5V25C27.5 25.3315 27.3683 25.6495 27.1339 25.8839C26.8995 26.1183 26.5815 26.25 26.25 26.25H3.75C3.41848 26.25 3.10054 26.1183 2.86612 25.8839C2.6317 25.6495 2.5 25.3315 2.5 25V5C2.5 4.66848 2.6317 4.35054 2.86612 4.11612C3.10054 3.8817 3.41848 3.75 3.75 3.75ZM5 6.25V23.75H25V6.25H5ZM12.5625 13.75H18.75V16.25H12.5625C12.6708 16.7817 12.9156 17.276 13.2729 17.6843C13.6303 18.0926 14.0877 18.4008 14.6003 18.5787C15.1129 18.7565 15.663 18.7978 16.1964 18.6986C16.7298 18.5993 17.2282 18.3629 17.6425 18.0125L19.7675 19.4288C19.0373 20.2237 18.0938 20.7917 17.0496 21.0651C16.0054 21.3384 14.9046 21.3056 13.8786 20.9705C12.8526 20.6354 11.9446 20.0121 11.2631 19.1751C10.5815 18.3381 10.1552 17.3227 10.035 16.25H8.75V13.75H10.0338C10.1536 12.6768 10.5798 11.6608 11.2615 10.8233C11.9431 9.98574 12.8515 9.36215 13.878 9.02696C14.9046 8.69177 16.0059 8.65915 17.0504 8.93299C18.095 9.20683 19.0387 9.77556 19.7687 10.5712L17.6425 11.9875C17.2282 11.6371 16.7298 11.4007 16.1964 11.3014C15.663 11.2022 15.1129 11.2435 14.6003 11.4213C14.0877 11.5992 13.6303 11.9074 13.2729 12.3157C12.9156 12.724 12.6708 13.2183 12.5625 13.75Z" fill="white"/>
</svg>
