<svg width="25" height="30" viewBox="0 0 25 30" fill="none" xmlns="http://www.w3.org/2000/svg">
<g clip-path="url(#clip0)">
<path d="M21.2045 2.29474C19.8443 0.744343 17.3854 0.0796509 14.2398 0.0796509H5.11045C4.79922 0.0796624 4.4982 0.190697 4.26152 0.392792C4.02483 0.594888 3.86801 0.874786 3.81923 1.18217L0.0179211 25.291C-0.0576365 25.7664 0.310487 26.1969 0.792338 26.1969H6.4285L7.84399 17.2187L7.80006 17.4999C7.9009 16.8653 8.44367 16.3972 9.08639 16.3972H11.7647C17.0262 16.3972 21.146 14.2601 22.3495 8.07792C22.3852 7.89508 22.4162 7.71712 22.4429 7.54326C22.291 7.46282 22.291 7.46282 22.4429 7.54326C22.8013 5.25828 22.4405 3.7029 21.2045 2.29474Z" fill="#27346A"/>
<path d="M10.0006 6.72013C10.1547 6.64676 10.3232 6.60874 10.4939 6.60884H17.6512C18.4987 6.60884 19.2892 6.664 20.0116 6.78026C20.2137 6.81249 20.4148 6.85097 20.6146 6.89565C20.8977 6.95813 21.1776 7.03459 21.4531 7.12476C21.8083 7.24337 22.139 7.3815 22.443 7.54326C22.8013 5.2574 22.4405 3.7029 21.2045 2.29474C19.8435 0.744343 17.3854 0.0796509 14.2398 0.0796509H5.10966C4.46684 0.0796509 3.91997 0.547639 3.81923 1.18217L0.0179216 25.2901C-0.057636 25.7663 0.310488 26.1962 0.791557 26.1962H6.42851L9.3652 7.57332C9.39407 7.39028 9.46699 7.21699 9.57768 7.06836C9.68836 6.91974 9.8335 6.80023 10.0006 6.72013Z" fill="#27346A"/>
<path d="M22.3495 8.07794C21.146 14.2592 17.0263 16.3972 11.7647 16.3972H9.08562C8.44289 16.3972 7.90003 16.8653 7.80016 17.4999L6.0392 28.6632C5.97341 29.0792 6.29516 29.4562 6.7161 29.4562H11.4672C11.7394 29.4562 12.0026 29.359 12.2095 29.1822C12.4164 29.0054 12.5535 28.7606 12.596 28.4918L12.6423 28.2497L13.5378 22.5745L13.5955 22.2608C13.638 21.992 13.775 21.7472 13.9819 21.5704C14.1888 21.3936 14.452 21.2964 14.7241 21.2963H15.4352C20.0377 21.2963 23.6415 19.4265 24.6946 14.0188C25.1342 11.7589 24.9067 9.87209 23.7439 8.5468C23.3912 8.14539 22.9532 7.81388 22.4429 7.54327C22.4153 7.71801 22.3853 7.89509 22.3495 8.07794Z" fill="#2790C3"/>
<path d="M21.1835 7.04112C20.9958 6.98633 20.8064 6.93782 20.6155 6.89567C20.4157 6.85173 20.2146 6.81351 20.0125 6.78107C19.2894 6.66402 18.4994 6.60877 17.6511 6.60877H10.4947C10.3239 6.60838 10.1553 6.64673 10.0014 6.72093C9.83415 6.80079 9.68885 6.92022 9.57812 7.06889C9.46738 7.21756 9.39455 7.39098 9.36594 7.57413L7.84483 17.2188L7.8009 17.4999C7.90096 16.8653 8.44373 16.3972 9.08655 16.3972H11.7656C17.0271 16.3972 21.1469 14.2601 22.3503 8.07794C22.3862 7.8951 22.4162 7.71792 22.4439 7.54328C22.1391 7.3824 21.8092 7.24339 21.454 7.12557C21.3644 7.09585 21.2742 7.0677 21.1836 7.04112" fill="#1F264F"/>
</g>
<defs>
<clipPath id="clip0">
<rect width="25" height="29.4811" fill="white"/>
</clipPath>
</defs>
</svg>
