<svg width="35" height="12" viewBox="0 0 35 12" fill="none" xmlns="http://www.w3.org/2000/svg">
<path d="M18.1012 3.634C18.0812 5.21753 19.5042 6.10114 20.5761 6.62656C21.6774 7.16558 22.0473 7.51127 22.0429 7.99337C22.0347 8.7311 21.1644 9.05671 20.3501 9.06936C18.9293 9.0915 18.1032 8.68352 17.4465 8.37495L16.9347 10.7839C17.5936 11.0893 18.8137 11.3557 20.0789 11.3674C23.0488 11.3674 24.9917 9.89275 25.0023 7.60643C25.0139 4.70477 21.0122 4.54416 21.0395 3.2472C21.0489 2.85393 21.422 2.43426 22.2395 2.32755C22.6441 2.27365 23.7611 2.2324 25.0276 2.819L25.5246 0.488266C24.8436 0.238829 23.9682 -2.00272e-05 22.8784 -2.00272e-05C20.0831 -2.00272e-05 18.117 1.49468 18.1012 3.634ZM30.3008 0.200739C29.7585 0.200739 29.3015 0.518929 29.0975 1.00721L24.8552 11.1962H27.8229L28.4135 9.55448H32.0399L32.3825 11.1962H34.9982L32.7157 0.200739H30.3008ZM30.716 3.17102L31.5724 7.29993H29.2268L30.716 3.17102ZM14.503 0.200876L12.1637 11.196H14.9917L17.3299 0.200602H14.503V0.200876ZM10.3194 0.200602L7.37591 7.68467L6.18522 1.32128C6.04551 0.610922 5.49377 0.200739 4.88106 0.200739H0.0693483L0.00195312 0.520029C0.989777 0.73564 2.11212 1.08339 2.79208 1.45549C3.20821 1.68279 3.32687 1.88148 3.46358 2.42161L5.71878 11.1962H8.70727L13.2891 0.200739H10.3194" fill="url(#paint0_linear)"/>
<defs>
<linearGradient id="paint0_linear" x1="16.0911" y1="11.5954" x2="16.4221" y2="-0.0789671" gradientUnits="userSpaceOnUse">
<stop stop-color="#222357"/>
<stop offset="1" stop-color="#254AA5"/>
</linearGradient>
</defs>
</svg>
