<svg width="21" height="25" viewBox="0 0 21 25" fill="none" xmlns="http://www.w3.org/2000/svg">
<g clip-path="url(#clip0)">
<path d="M16.9698 13.2563C17.0048 17.0325 20.2825 18.2891 20.3187 18.3052C20.291 18.3937 19.795 20.0959 18.592 21.854C17.552 23.3741 16.4725 24.8886 14.7721 24.9199C13.1015 24.9507 12.5642 23.9292 10.6541 23.9292C8.74445 23.9292 8.14754 24.8886 6.56595 24.9507C4.92468 25.0129 3.67484 23.3071 2.62627 21.7925C0.483415 18.6947 -1.15412 13.0386 1.04468 9.22064C2.13699 7.3246 4.08913 6.12405 6.20786 6.09325C7.81953 6.06254 9.3408 7.17754 10.326 7.17754C11.3106 7.17754 13.1593 5.83667 15.1027 6.03357C15.9162 6.06746 18.2 6.36214 19.6664 8.50865C19.5482 8.58191 16.9414 10.0994 16.9698 13.2564V13.2563ZM13.8298 3.98405C14.7013 2.92929 15.2877 1.46103 15.1277 0C13.8717 0.0504762 12.3529 0.836984 11.452 1.89111C10.6446 2.82468 9.93754 4.31881 10.1283 5.75087C11.5283 5.85921 12.9585 5.03944 13.8299 3.98405" fill="black"/>
</g>
<defs>
<clipPath id="clip0">
<rect width="20.32" height="25" fill="white"/>
</clipPath>
</defs>
</svg>
