<svg width="11" height="15" viewBox="0 0 11 15" fill="none" xmlns="http://www.w3.org/2000/svg">
<path d="M8.75 0.75H1.75C0.765625 0.75 0 1.54297 0 2.5V14.3125C0 14.4492 0.0820312 14.6133 0.21875 14.6953C0.355469 14.75 0.519531 14.75 0.65625 14.668L5.25 11.7695L9.81641 14.668C9.89844 14.75 9.98047 14.75 10.0625 14.75C10.1172 14.75 10.1992 14.75 10.2539 14.7227C10.3906 14.6406 10.5 14.4766 10.5 14.3125V2.5C10.5 1.54297 9.70703 0.75 8.75 0.75ZM9.625 13.5195L5.46875 10.8945C5.38672 10.8398 5.33203 10.8125 5.25 10.8125C5.16797 10.8125 5.08594 10.8398 5.00391 10.8945L0.875 13.5195V2.5C0.875 2.03516 1.25781 1.625 1.75 1.625H8.75C9.21484 1.625 9.625 2.03516 9.625 2.5V13.5195Z" fill="#92A65F"/>
</svg>
