<svg width="48" height="48" viewBox="0 0 48 48" fill="none" xmlns="http://www.w3.org/2000/svg">
<circle cx="24" cy="24" r="22" fill="#92A65F" stroke="#F5F5F5" stroke-width="4"/>
<path d="M33 16.5H29.625L29.2031 15.4688C28.7812 14.2969 27.6562 13.5 26.3906 13.5H21.5625C20.2969 13.5 19.1719 14.2969 18.75 15.4688L18.375 16.5H15C13.3125 16.5 12 17.8594 12 19.5V31.5C12 33.1875 13.3125 34.5 15 34.5H33C34.6406 34.5 36 33.1875 36 31.5V19.5C36 17.8594 34.6406 16.5 33 16.5ZM34.5 31.5C34.5 32.3438 33.7969 33 33 33H15C14.1562 33 13.5 32.3438 13.5 31.5V19.5C13.5 18.7031 14.1562 18 15 18H19.4062L20.1562 15.9844C20.3906 15.4219 20.9062 15 21.5625 15H26.3906C27 15 27.5625 15.4219 27.7969 15.9844L28.5469 18H33C33.7969 18 34.5 18.7031 34.5 19.5V31.5ZM24 19.875C20.8594 19.875 18.375 22.4062 18.375 25.5C18.375 28.6406 20.8594 31.125 24 31.125C27.0938 31.125 29.625 28.6406 29.625 25.5C29.625 22.4062 27.0938 19.875 24 19.875ZM24 29.625C21.7031 29.625 19.875 27.7969 19.875 25.5C19.875 23.25 21.7031 21.375 24 21.375C26.25 21.375 28.125 23.25 28.125 25.5C28.125 27.7969 26.25 29.625 24 29.625Z" fill="white"/>
</svg>
