<svg xmlns="http://www.w3.org/2000/svg" xmlns:xlink="http://www.w3.org/1999/xlink" width="94" height="94" viewBox="0 0 94 94">
  <defs>
    <filter id="Ellipse_3" x="0" y="0" width="94" height="94" filterUnits="userSpaceOnUse">
      <feOffset dy="6" input="SourceAlpha"/>
      <feGaussianBlur stdDeviation="5" result="blur"/>
      <feFlood flood-opacity="0.161"/>
      <feComposite operator="in" in2="blur"/>
      <feComposite in="SourceGraphic"/>
    </filter>
  </defs>
  <g id="Chat_Button" data-name="Chat Button" transform="translate(-304 -711)">
    <g transform="matrix(1, 0, 0, 1, 304, 711)" filter="url(#Ellipse_3)">
      <circle id="Ellipse_3-2" data-name="Ellipse 3" cx="32" cy="32" r="32" transform="translate(15 9)" fill="#495936"/>
    </g>
    <g id="Chat_Icons" data-name="Chat Icons" transform="translate(338.787 740.732)">
      <path id="Icon_material-chat_bubble_outline" data-name="Icon material-chat_bubble_outline" d="M18.466,3H4.718A1.724,1.724,0,0,0,3,4.718V20.185l3.437-3.437H18.466a1.724,1.724,0,0,0,1.718-1.718V4.718A1.724,1.724,0,0,0,18.466,3Zm0,12.029H6.437L4.718,16.748V4.718H18.466Z" transform="translate(-3 1.899)" fill="#F5F7F2"/>
      <path id="Icon_material-chat_bubble_outline-2" data-name="Icon material-chat_bubble_outline" d="M4.549,3H16.943a1.554,1.554,0,0,1,1.549,1.549V18.492l-3.1-3.1H4.549A1.554,1.554,0,0,1,3,13.844v-9.3A1.554,1.554,0,0,1,4.549,3Zm0,10.844H15.393l1.549,1.549V4.549H4.549Z" transform="translate(4.65 -3)" fill="#F5F7F2"/>
    </g>
  </g>
</svg>