<svg width="15" height="13" viewBox="0 0 15 13" fill="none" xmlns="http://www.w3.org/2000/svg">
<path d="M8 1.5C11.3633 1.5 14.0977 3.66016 14.0977 6.3125C14.0977 8.96484 11.3633 11.125 8 11.125C7.20703 11.125 6.44141 11.0156 5.70312 10.7969C5.45703 10.7148 5.15625 10.7422 4.9375 10.9062C4.33594 11.3438 3.35156 11.8633 2.12109 12C2.44922 11.5898 2.94141 10.8789 3.24219 10.0859C3.37891 9.78516 3.29688 9.45703 3.07812 9.18359C2.28516 8.33594 1.875 7.35156 1.875 6.3125C1.875 3.66016 4.60938 1.5 8 1.5ZM8 0.625C4.11719 0.625 1 3.19531 1 6.3125C1 7.625 1.51953 8.82812 2.42188 9.78516C2.03906 10.8516 1.19141 11.7812 1.16406 11.7812C0.972656 11.9727 0.945312 12.2461 1.02734 12.4922C1.13672 12.7383 1.38281 12.875 1.65625 12.875C3.32422 12.875 4.63672 12.1914 5.45703 11.6172C6.25 11.8633 7.09766 12 8 12C11.8555 12 14.9727 9.45703 14.9727 6.3125C14.9727 3.19531 11.8555 0.625 8 0.625Z" fill="#92A65F"/>
</svg>
