<svg width="146" height="128" viewBox="0 0 146 128" fill="none" xmlns="http://www.w3.org/2000/svg">
<rect width="132" height="128" rx="4" fill="#C9D3AF"/>
<g clip-path="url(#clip0)">
<path d="M37.692 18C33.828 18 30.6151 21.2129 30.6151 25.0769V92.3077C30.6151 96.1717 33.828 99.3846 37.692 99.3846H44.769V110L55.3843 102.923L65.9997 110V84.6788C65.5114 84.9604 64.991 85.1825 64.4499 85.3405C64.0712 86.1567 63.5344 86.8897 62.8705 87.4971C62.2067 88.1044 61.4289 88.5741 60.5823 88.8789C59.8337 89.1234 59.0483 89.2359 58.2611 89.2115C57.2703 89.2115 56.2796 89.0842 55.3843 88.6595C54.4783 89.055 53.4956 89.2436 52.5076 89.2115C51.715 89.2115 50.94 89.1514 50.1863 88.8789C48.4787 88.2579 47.0868 86.9856 46.3153 85.3405C45.7756 85.1816 45.2565 84.9595 44.769 84.6788V92.3077H37.692V25.0769H94.3074V92.3077H76.6151C75.6767 92.3077 74.7766 92.6805 74.113 93.3441C73.4494 94.0077 73.0766 94.9077 73.0766 95.8462C73.0766 96.7846 73.4494 97.6846 74.113 98.3482C74.7766 99.0118 75.6767 99.3846 76.6151 99.3846H94.3074C98.1714 99.3846 101.384 96.1717 101.384 92.3077V25.0769C101.384 21.2129 98.1714 18 94.3074 18H37.692ZM47.6457 35.6923C46.7073 35.7801 45.8421 36.237 45.2406 36.9626C44.639 37.6883 44.3504 38.6232 44.4381 39.5616C44.5259 40.5001 44.9828 41.3652 45.7084 41.9668C46.4341 42.5683 47.369 42.857 48.3074 42.7692H83.692C84.6305 42.7692 85.5305 42.3964 86.1941 41.7328C86.8577 41.0692 87.2305 40.1692 87.2305 39.2308C87.2305 38.2923 86.8577 37.3923 86.1941 36.7287C85.5305 36.0651 84.6305 35.6923 83.692 35.6923H48.3074C48.1966 35.6871 48.0856 35.6871 47.9748 35.6923C47.8652 35.6872 47.7554 35.6872 47.6457 35.6923ZM47.6457 49.8462C46.7073 49.9339 45.8421 50.3909 45.2406 51.1165C44.639 51.8421 44.3504 52.777 44.4381 53.7155C44.5259 54.6539 44.9828 55.5191 45.7084 56.1206C46.4341 56.7222 47.369 57.0108 48.3074 56.9231H73.0766C74.0151 56.9231 74.9151 56.5503 75.5787 55.8867C76.2423 55.2231 76.6151 54.3231 76.6151 53.3846C76.6151 52.4462 76.2423 51.5461 75.5787 50.8825C74.9151 50.219 74.0151 49.8462 73.0766 49.8462H48.3074C48.1966 49.8409 48.0856 49.8409 47.9748 49.8462C47.8652 49.8411 47.7554 49.8411 47.6457 49.8462ZM55.3843 62.7828C54.6738 62.7835 53.9815 63.0082 53.406 63.4249C52.8305 63.8416 52.401 64.4292 52.1785 65.104C52.0334 65.1535 51.8742 65.1606 51.7362 65.2172C51.1381 64.8579 50.4419 64.6965 49.7467 64.7563C49.0516 64.816 48.3931 65.0937 47.8651 65.5498C47.3306 65.9961 46.9478 66.5973 46.7697 67.2705C46.5916 67.9436 46.6269 68.6555 46.8708 69.3077C46.7753 69.4528 46.7363 69.5978 46.6479 69.75C45.9567 69.8651 45.3187 70.1934 44.8232 70.6889C44.3277 71.1844 43.9995 71.8223 43.8843 72.5135C43.7707 73.1866 43.8695 73.8784 44.1668 74.4928C44.4642 75.1072 44.9455 75.6138 45.5439 75.9423C45.5686 76.1652 45.4979 76.3917 45.5439 76.6075C45.1167 77.1277 44.8564 77.7646 44.797 78.4351C44.7377 79.1055 44.8821 79.7783 45.2113 80.3654C45.8977 81.5578 47.2636 82.2231 48.64 82.0249C48.817 82.1912 48.9974 82.3151 49.192 82.4672C49.2274 83.8366 50.1014 85.0857 51.4036 85.5634C52.6916 86.034 54.1494 85.5811 55.0517 84.5655C55.1826 84.5726 55.2499 84.6788 55.3843 84.6788C55.5294 84.6788 55.6816 84.5726 55.8266 84.5655C56.1322 84.9105 56.5068 85.1873 56.9261 85.3781C57.3455 85.5689 57.8004 85.6694 58.2611 85.6731C58.6433 85.6731 58.99 85.6978 59.3651 85.5634C60.0015 85.3282 60.5525 84.9073 60.9468 84.3553C61.3412 83.8032 61.5606 83.1455 61.5766 82.4672C61.7642 82.3186 61.9482 82.1912 62.1286 82.0249C62.8004 82.1202 63.4853 82.0133 64.096 81.7177C64.7066 81.4221 65.2154 80.9513 65.5574 80.3654C65.8874 79.7779 66.0322 79.1044 65.9729 78.4333C65.9135 77.7621 65.6528 77.1245 65.2248 76.604C65.2743 76.3917 65.193 76.1582 65.2248 75.9423C65.8254 75.6162 66.3085 75.11 66.6062 74.4949C66.9039 73.8798 67.0012 73.1868 66.8843 72.5135C66.7697 71.8221 66.4416 71.1839 65.946 70.6883C65.4504 70.1927 64.8122 69.8646 64.1208 69.75C64.0359 69.5943 63.9934 69.4563 63.8979 69.3077C64.1436 68.6552 64.1799 67.9423 64.0017 67.2681C63.8235 66.594 63.4397 65.9922 62.9036 65.5463C62.3755 65.0902 61.7167 64.8128 61.0214 64.7537C60.3262 64.6946 59.63 64.8569 59.0325 65.2172C58.891 65.1606 58.7353 65.1535 58.5902 65.1075C58.3683 64.432 57.9391 63.8437 57.3635 63.4263C56.7879 63.009 56.0953 62.7837 55.3843 62.7828ZM55.3843 68.9751C58.5194 68.9751 61.0246 71.4803 61.0246 74.6154C61.0246 77.7575 58.523 80.2557 55.3843 80.2557C54.6425 80.2599 53.9071 80.1169 53.2209 79.835C52.5347 79.553 51.9112 79.1377 51.3866 78.6131C50.862 78.0885 50.4467 77.465 50.1648 76.7788C49.8828 76.0926 49.7398 75.3573 49.744 74.6154C49.744 71.4768 52.2493 68.9751 55.3843 68.9751Z" fill="#F5F5F5"/>
</g>
<path fill-rule="evenodd" clip-rule="evenodd" d="M128.5 85.4584C119.641 85.4584 112.458 92.6407 112.458 101.5C112.458 110.359 119.641 117.542 128.5 117.542C137.359 117.542 144.542 110.359 144.542 101.5C144.542 92.6407 137.359 85.4584 128.5 85.4584ZM129.958 107.333C129.958 107.72 129.805 108.091 129.531 108.365C129.258 108.638 128.887 108.792 128.5 108.792C128.113 108.792 127.742 108.638 127.469 108.365C127.195 108.091 127.042 107.72 127.042 107.333V102.958H122.667C122.28 102.958 121.909 102.805 121.636 102.531C121.362 102.258 121.208 101.887 121.208 101.5C121.208 101.113 121.362 100.742 121.636 100.469C121.909 100.195 122.28 100.042 122.667 100.042H127.042V95.6667C127.042 95.2799 127.195 94.909 127.469 94.6355C127.742 94.362 128.113 94.2084 128.5 94.2084C128.887 94.2084 129.258 94.362 129.531 94.6355C129.805 94.909 129.958 95.2799 129.958 95.6667V100.042H134.333C134.72 100.042 135.091 100.195 135.365 100.469C135.638 100.742 135.792 101.113 135.792 101.5C135.792 101.887 135.638 102.258 135.365 102.531C135.091 102.805 134.72 102.958 134.333 102.958H129.958V107.333Z" fill="#4A5A36"/>
<defs>
<clipPath id="clip0">
<rect width="92" height="92" fill="white" transform="translate(20 18)"/>
</clipPath>
</defs>
</svg>
