<svg width="25" height="25" viewBox="0 0 25 25" fill="none" xmlns="http://www.w3.org/2000/svg">
<g clip-path="url(#clip0)">
<path d="M5.48541 10.1719C5.97278 8.69734 6.91339 7.41439 8.17303 6.50604C9.43267 5.59769 10.947 5.11035 12.5 5.11354C14.2604 5.11354 15.8521 5.73854 17.1021 6.76146L20.7396 3.125C18.5229 1.19271 15.6823 0 12.5 0C7.57291 0 3.33124 2.81042 1.29166 6.92708L5.48541 10.1719Z" fill="#EA4335"/>
<path d="M16.7083 18.7635C15.5729 19.4958 14.1313 19.8865 12.5 19.8865C10.9532 19.8896 9.44459 19.4062 8.18775 18.5045C6.93091 17.6029 5.98953 16.3288 5.49688 14.8625L1.28854 18.0573C2.32109 20.1472 3.91903 21.9056 5.90086 23.1329C7.88269 24.3601 10.169 25.007 12.5 25C15.5552 25 18.474 23.9135 20.6604 21.875L16.7094 18.7635H16.7083Z" fill="#34A853"/>
<path d="M20.6604 21.875C22.9469 19.7417 24.4312 16.5667 24.4312 12.5C24.4312 11.7604 24.3177 10.9656 24.1479 10.2271H12.5V15.0573H19.2042C18.874 16.6812 17.9854 17.9385 16.7094 18.7635L20.6604 21.875Z" fill="#4A90E2"/>
<path d="M5.49687 14.8625C5.24204 14.1009 5.11257 13.3031 5.11354 12.5C5.11354 11.6854 5.24375 10.9031 5.48542 10.1719L1.29167 6.92708C0.433726 8.65904 -0.00853868 10.5672 -7.63503e-07 12.5C-7.63503e-07 14.5 0.463541 16.3854 1.28854 18.0573L5.49687 14.8625Z" fill="#FBBC05"/>
</g>
<defs>
<clipPath id="clip0">
<rect width="25" height="25" fill="white"/>
</clipPath>
</defs>
</svg>
