<svg width="25" height="25" viewBox="0 0 25 25" fill="none" xmlns="http://www.w3.org/2000/svg">
<g clip-path="url(#clip0)">
<path d="M21.3002 21.3009H17.596V15.4998C17.596 14.1165 17.5713 12.3357 15.6694 12.3357C13.7401 12.3357 13.4449 13.843 13.4449 15.3991V21.3005H9.74079V9.3712H13.2967V11.0015H13.3466C13.7024 10.393 14.2167 9.8924 14.8345 9.55305C15.4524 9.2137 16.1507 9.04828 16.8551 9.07442C20.6095 9.07442 21.3017 11.544 21.3017 14.7566L21.3002 21.3009ZM5.5611 7.74063C4.3739 7.74083 3.4113 6.77852 3.4111 5.59132C3.41091 4.40411 4.37311 3.44151 5.56032 3.44132C6.74753 3.44102 7.71013 4.40333 7.71032 5.59053C7.71042 6.16066 7.48405 6.70747 7.081 7.11069C6.67794 7.51391 6.13122 7.7405 5.5611 7.74063ZM7.41325 21.301H3.70515V9.3712H7.41315V21.3009L7.41325 21.301ZM23.1468 0.00117865H1.84382C0.836981 -0.0101495 0.0112976 0.796393 -0.00100708 1.80323V23.1951C0.010907 24.2024 0.836493 25.0098 1.84372 24.9992H23.1468C24.1562 25.0117 24.985 24.2044 24.999 23.1951V1.80157C24.9846 0.79278 24.1557 -0.0136651 23.1468 -0.000481505" fill="#0A66C2"/>
</g>
<defs>
<clipPath id="clip0">
<rect width="25" height="25" fill="white"/>
</clipPath>
</defs>
</svg>
