<svg width="33" height="33" viewBox="0 0 33 33" fill="none" xmlns="http://www.w3.org/2000/svg">
<path fill-rule="evenodd" clip-rule="evenodd" d="M16.5 0.458313C7.64067 0.458313 0.458374 7.64061 0.458374 16.5C0.458374 25.3594 7.64067 32.5416 16.5 32.5416C25.3594 32.5416 32.5417 25.3594 32.5417 16.5C32.5417 7.64061 25.3594 0.458313 16.5 0.458313ZM17.9584 22.3333C17.9584 22.7201 17.8047 23.091 17.5312 23.3645C17.2577 23.638 16.8868 23.7916 16.5 23.7916C16.1133 23.7916 15.7423 23.638 15.4688 23.3645C15.1954 23.091 15.0417 22.7201 15.0417 22.3333V17.9583H10.6667C10.2799 17.9583 9.909 17.8047 9.63551 17.5312C9.36202 17.2577 9.20837 16.8868 9.20837 16.5C9.20837 16.1132 9.36202 15.7423 9.63551 15.4688C9.909 15.1953 10.2799 15.0416 10.6667 15.0416H15.0417V10.6666C15.0417 10.2799 15.1954 9.90894 15.4688 9.63545C15.7423 9.36196 16.1133 9.20831 16.5 9.20831C16.8868 9.20831 17.2577 9.36196 17.5312 9.63545C17.8047 9.90894 17.9584 10.2799 17.9584 10.6666V15.0416H22.3334C22.7201 15.0416 23.0911 15.1953 23.3646 15.4688C23.6381 15.7423 23.7917 16.1132 23.7917 16.5C23.7917 16.8868 23.6381 17.2577 23.3646 17.5312C23.0911 17.8047 22.7201 17.9583 22.3334 17.9583H17.9584V22.3333Z" fill="#4A5A36"/>
</svg>
