<svg width="14" height="11" viewBox="0 0 14 11" fill="none" xmlns="http://www.w3.org/2000/svg">
<path d="M4.8125 4.875H12.332L8.01172 1.29297C7.82031 1.12891 7.82031 0.855469 7.95703 0.664062C8.12109 0.472656 8.39453 0.472656 8.58594 0.609375L13.8359 4.95703C13.918 5.06641 14 5.20312 14 5.3125C14 5.42188 13.918 5.55859 13.8359 5.64062L8.58594 9.98828C8.50391 10.043 8.39453 10.0977 8.3125 10.0977C8.17578 10.0977 8.03906 10.043 7.95703 9.93359C7.82031 9.74219 7.82031 9.46875 8.01172 9.30469L12.332 5.72266H4.8125C2.625 5.72266 0.875 7.47266 0.875 9.63281V10.4805C0.875 10.8086 0.65625 11 0.4375 11C0.191406 11 0 10.8086 0 10.5625V9.71484C0 7.03516 2.13281 4.875 4.8125 4.875Z" fill="#92A65F"/>
</svg>
