<svg width="15" height="9" viewBox="0 0 15 9" fill="none" xmlns="http://www.w3.org/2000/svg">
<path fill-rule="evenodd" clip-rule="evenodd" d="M0.9375 4.49998C0.9375 4.37566 0.986886 4.25643 1.07479 4.16853C1.1627 4.08062 1.28193 4.03123 1.40625 4.03123H12.4622L9.51188 1.08186C9.42386 0.993838 9.37441 0.874459 9.37441 0.749982C9.37441 0.625504 9.42386 0.506125 9.51188 0.418107C9.59989 0.330088 9.71927 0.28064 9.84375 0.28064C9.96823 0.28064 10.0876 0.330088 10.1756 0.418107L13.9256 4.16811C13.9693 4.21165 14.0039 4.26338 14.0275 4.32033C14.0512 4.37727 14.0633 4.43832 14.0633 4.49998C14.0633 4.56164 14.0512 4.62269 14.0275 4.67964C14.0039 4.73659 13.9693 4.78831 13.9256 4.83186L10.1756 8.58186C10.0876 8.66988 9.96823 8.71932 9.84375 8.71932C9.71927 8.71932 9.59989 8.66988 9.51188 8.58186C9.42386 8.49384 9.37441 8.37446 9.37441 8.24998C9.37441 8.1255 9.42386 8.00613 9.51188 7.91811L12.4622 4.96873H1.40625C1.28193 4.96873 1.1627 4.91935 1.07479 4.83144C0.986886 4.74353 0.9375 4.6243 0.9375 4.49998Z" fill="#4A5A36"/>
</svg>
