<svg width="25" height="22" viewBox="0 0 25 22" fill="none" xmlns="http://www.w3.org/2000/svg">
<path d="M16.1875 6.40625C15.6719 5.60938 14.3594 5.60938 13.7969 6.40625L10.375 11.6094L9.625 10.5312C9.0625 9.78125 7.79688 9.78125 7.28125 10.5312L4.23438 14.75C3.95312 15.1719 3.90625 15.7344 4.14062 16.25C4.375 16.7188 4.89062 17 5.40625 17H20.5469C21.0625 17 21.5781 16.7188 21.8125 16.25C22.0469 15.7812 22.0469 15.2188 21.7188 14.7969L16.1875 6.40625ZM5.45312 15.5L8.40625 11.4219L9.8125 13.3438C9.95312 13.5781 10.1875 13.7188 10.4219 13.6719C10.6562 13.6719 10.8906 13.5312 11.0312 13.3438L14.9688 7.25L20.4531 15.5H5.45312ZM21.9531 0.5H3.95312C2.3125 0.5 0.953125 1.85938 0.953125 3.5V18.5C0.953125 20.1875 2.3125 21.5 3.95312 21.5H21.9531C23.5938 21.5 24.9531 20.1875 24.9531 18.5V3.5C24.9531 1.85938 23.6406 0.5 21.9531 0.5ZM23.5 18.5C23.5 19.3438 22.7969 20 22 20H4C3.15625 20 2.5 19.3438 2.5 18.5V3.5C2.5 2.70312 3.15625 2 4 2H22C22.7969 2 23.5 2.70312 23.5 3.5V18.5ZM7.75 8C8.96875 8 10 7.01562 10 5.75C10 4.53125 8.96875 3.5 7.75 3.5C6.48438 3.5 5.5 4.53125 5.5 5.75C5.5 7.01562 6.48438 8 7.75 8ZM7.75 5C8.125 5 8.45312 5.375 8.45312 5.75C8.45312 6.17188 8.125 6.5 7.75 6.5C7.32812 6.5 7 6.17188 7 5.75C7 5.375 7.32812 5 7.75 5Z" fill="#4A5A36"/>
</svg>
