<svg width="29" height="24" viewBox="0 0 29 24" fill="none" xmlns="http://www.w3.org/2000/svg">
<path d="M24.25 12C23.8281 12 23.5 12.375 23.5 12.75V16.5H5.45312V12.75C5.45312 12.375 5.125 12 4.70312 12C4.32812 12 4 12.375 4 12.75V21.75C4 23.0156 4.98438 24 6.20312 24H22.7031C23.9219 24 24.9062 23.0156 24.9062 21.75V12.75C25 12.375 24.625 12 24.25 12ZM23.5 21.75C23.5 22.1719 23.125 22.5 22.75 22.5H6.25C5.82812 22.5 5.5 22.1719 5.5 21.75V18H23.5V21.75ZM26.6406 4.875L23.9688 0.65625C23.7344 0.234375 23.3125 0 22.8438 0H6.10938C5.64062 0 5.21875 0.234375 4.98438 0.65625L2.3125 4.875C0.90625 7.07812 2.125 10.125 4.75 10.5C4.9375 10.5 5.125 10.5 5.3125 10.5C6.53125 10.5 7.60938 9.98438 8.35938 9.1875C9.10938 9.98438 10.1875 10.5 11.4062 10.5C12.625 10.5 13.7031 9.98438 14.4531 9.1875C15.2031 9.98438 16.3281 10.5 17.5469 10.5C18.7656 10.5 19.8438 9.98438 20.5938 9.1875C21.3438 9.98438 22.4219 10.5 23.6406 10.5C23.8281 10.5 24.0156 10.5 24.2031 10.5C26.8281 10.125 28.0469 7.07812 26.6406 4.875ZM25.5156 7.875C25.3281 8.25 24.9062 8.85938 24.0156 9C23.875 9 23.7812 9 23.6406 9C22.8906 9 22.1875 8.71875 21.6719 8.15625L20.5938 6.9375L19.4688 8.15625C18.9531 8.71875 18.2969 9 17.5469 9C16.7969 9 16.0938 8.71875 15.5781 8.15625L14.4531 6.9375L13.375 8.15625C12.8594 8.71875 12.1562 9 11.4062 9C10.6562 9 9.95312 8.71875 9.48438 8.15625L8.35938 6.9375L7.23438 8.15625C6.76562 8.71875 6.0625 9 5.3125 9C5.17188 9 5.07812 9 4.9375 9C4.04688 8.85938 3.625 8.25 3.4375 7.875C3.10938 7.17188 3.15625 6.32812 3.57812 5.67188L6.20312 1.5H22.75L25.375 5.67188C25.7969 6.32812 25.8438 7.17188 25.5156 7.875Z" fill="#4A5A36"/>
</svg>
